<?xml version="1.0" encoding="UTF-8" standalone="no"?>
<!DOCTYPE svg PUBLIC "-//W3C//DTD SVG 1.1//EN" "http://www.w3.org/Graphics/SVG/1.1/DTD/svg11.dtd">
<svg xmlns="http://www.w3.org/2000/svg" version="1.1" viewBox="0.00 0.00 365.00 343.00">
<g fill="#cc0000" fill-opacity="0.800">
<path d="
  M 170.81 343.00
  Q 170.66 343.00 170.51 343.00
  L 0.00 171.46
  Q 0.01 171.49 0.00 171.51
  L 170.23 0.45
  Q 170.67 0.01 171.10 0.45
  L 210.45 39.97
  Q 210.89 40.42 210.45 40.86
  L 80.99 170.83
  Q 80.24 171.59 80.99 172.34
  L 210.66 302.68
  Q 210.91 302.93 210.66 303.17
  L 170.81 343.00
  Z"
/>
<path d="
  M 234.55 171.87
  L 364.81 302.68
  A 0.33 0.33 0.0 0 1 364.81 303.14
  L 325.07 342.76
  A 0.33 0.33 0.0 0 1 324.61 342.76
  L 154.32 171.74
  A 0.33 0.33 0.0 0 1 154.32 171.28
  L 324.66 0.22
  A 0.33 0.33 0.0 0 1 325.12 0.22
  L 364.69 40.15
  A 0.33 0.33 0.0 0 1 364.69 40.61
  L 234.55 171.41
  A 0.33 0.33 0.0 0 0 234.55 171.87
  Z"
/>
</g>
</svg>
