<?xml version="1.0" encoding="UTF-8" standalone="no"?>
<!DOCTYPE svg PUBLIC "-//W3C//DTD SVG 1.1//EN" "http://www.w3.org/Graphics/SVG/1.1/DTD/svg11.dtd">
<svg xmlns="http://www.w3.org/2000/svg" version="1.1" viewBox="0.00 0.00 41.00 43.00">
<g fill="#f6f6f6">
<path d="
  M 7.77 0.00
  Q 7.90 -0.01 8.04 0.00
  L 11.37 4.20
  A 0.94 0.91 65.1 0 0 12.26 4.54
  Q 16.05 3.88 19.09 6.23
  Q 19.54 6.59 20.12 6.57
  C 23.29 6.49 25.23 4.39 27.94 4.41
  C 34.21 4.45 37.15 9.99 37.25 15.74
  Q 37.26 16.27 37.63 16.64
  L 40.32 19.32
  Q 40.69 19.69 40.27 19.99
  Q 38.51 21.24 37.32 23.02
  A 0.90 0.89 15.2 0 1 36.61 23.42
  Q 36.00 23.44 35.71 22.95
  Q 35.45 22.51 35.06 22.85
  Q 33.09 24.62 32.64 27.24
  Q 32.53 27.83 32.03 27.74
  A 1.06 1.05 19.1 0 1 31.28 26.20
  Q 32.48 23.97 33.93 21.93
  Q 34.67 20.89 32.82 20.14
  Q 32.26 19.91 32.69 19.49
  L 35.49 16.72
  Q 35.86 16.35 35.88 15.82
  C 36.10 9.80 32.14 3.77 25.62 6.02
  Q 25.57 6.04 23.10 7.36
  C 20.04 8.99 15.59 4.79 14.39 5.63
  Q 14.09 5.84 14.10 6.28
  Q 14.12 6.74 13.76 7.03
  Q 12.76 7.82 11.56 8.24
  A 0.44 0.44 0.0 0 1 10.98 7.81
  Q 11.02 6.84 11.95 6.49
  Q 12.64 6.24 11.98 5.89
  Q 9.57 4.64 8.33 2.21
  A 0.50 0.49 46.2 0 0 7.46 2.19
  Q 6.11 4.64 3.73 6.12
  Q 3.09 6.52 3.77 6.85
  Q 6.17 7.99 7.35 10.38
  A 0.55 0.54 -38.4 0 0 8.26 10.48
  L 9.00 9.59
  Q 10.33 7.97 9.86 10.02
  Q 9.25 12.68 6.70 12.42
  Q 6.27 12.38 6.20 12.79
  C 5.29 17.62 7.43 21.22 10.10 25.18
  Q 10.38 25.59 10.36 26.09
  C 10.16 31.24 8.03 36.70 12.64 40.73
  A 1.38 1.35 59.7 0 0 13.78 41.04
  C 16.21 40.58 15.65 37.02 15.70 35.25
  C 15.81 31.66 18.08 27.48 22.41 28.88
  C 26.63 30.25 26.36 35.02 26.40 38.63
  C 26.42 40.46 27.79 41.44 29.44 40.52
  C 32.50 38.82 32.64 33.44 31.86 30.39
  A 0.46 0.46 0.0 0 1 32.23 29.83
  L 32.56 29.77
  Q 33.05 29.68 33.12 30.17
  Q 33.85 35.25 33.27 37.00
  C 32.50 39.28 30.48 42.30 27.75 42.22
  C 23.87 42.10 25.98 33.65 24.02 31.30
  C 22.68 29.69 20.39 29.16 18.72 30.46
  C 14.75 33.55 19.33 41.29 13.74 42.23
  Q 13.26 42.31 12.83 42.08
  C 7.10 38.92 8.38 32.45 9.18 27.25
  A 3.16 3.16 0.0 0 0 8.54 24.79
  C 5.41 20.82 3.43 15.47 5.75 10.52
  A 1.06 1.06 0.0 0 0 5.37 9.19
  L 2.11 7.05
  A 0.69 0.69 0.0 0 1 2.08 5.91
  Q 5.33 3.55 7.77 0.00
  Z
  M 36.8043 17.6451
  A 0.27 0.27 0.0 0 0 36.4225 17.6425
  L 34.6851 19.3557
  A 0.27 0.27 0.0 0 0 34.6825 19.7375
  L 36.3957 21.4749
  A 0.27 0.27 0.0 0 0 36.7775 21.4775
  L 38.5149 19.7643
  A 0.27 0.27 0.0 0 0 38.5175 19.3825
  L 36.8043 17.6451
  Z"
/>
<path d="
  M 34.57 3.73
  Q 34.36 3.31 34.62 2.48
  A 0.72 0.72 0.0 0 1 35.90 2.27
  Q 36.16 2.65 36.58 2.94
  A 1.03 1.02 53.9 0 1 36.30 4.75
  Q 35.47 5.02 35.12 4.54
  A 1.24 0.05 53.5 0 1 34.57 3.73
  Z"
/>
<path d="
  M 2.63 12.47
  Q 2.96 12.97 2.56 13.41
  L 1.87 14.16
  Q 1.46 14.61 1.10 14.12
  L 0.57 13.37
  Q 0.29 12.97 0.50 12.54
  Q 1.43 10.63 2.63 12.47
  Z"
/>
<path d="
  M 37.93 28.02
  L 38.64 27.23
  A 0.64 0.64 0.0 0 1 39.65 27.31
  L 40.21 28.15
  A 0.64 0.64 0.0 0 1 40.15 28.95
  L 39.63 29.50
  A 0.64 0.64 0.0 0 1 38.76 29.56
  L 38.00 28.95
  A 0.64 0.64 0.0 0 1 37.93 28.02
  Z"
/>
</g>
</svg>
