<?xml version="1.0" encoding="UTF-8" standalone="no"?>
<!DOCTYPE svg PUBLIC "-//W3C//DTD SVG 1.1//EN" "http://www.w3.org/Graphics/SVG/1.1/DTD/svg11.dtd">
<svg xmlns="http://www.w3.org/2000/svg" version="1.1" viewBox="0.00 0.00 46.00 47.00">
<g fill="#f4f7f5">
<path d="
  M 0.00 10.87
  L 0.00 0.52
  L 0.73 0.29
  A 0.90 0.89 60.6 0 1 1.65 0.55
  L 7.61 7.13
  A 1.48 1.46 -71.1 0 1 7.97 7.88
  C 8.29 9.81 9.40 10.39 10.59 11.78
  Q 10.97 12.21 10.54 12.59
  Q 10.19 12.89 9.98 13.24
  Q 9.71 13.71 10.07 14.11
  L 13.46 17.92
  A 0.77 0.75 -56.8 0 1 13.61 18.68
  L 12.88 20.81
  A 1.17 1.17 0.0 0 0 13.51 22.26
  Q 15.22 23.04 16.59 21.88
  A 0.64 0.63 -38.5 0 1 17.50 21.98
  L 17.67 22.21
  Q 18.05 22.70 17.51 23.00
  C 16.21 23.74 14.66 24.61 13.17 23.92
  C 10.23 22.57 11.79 20.96 11.88 18.70
  A 0.86 0.85 -66.9 0 0 11.63 18.07
  L 8.83 15.31
  Q 8.46 14.95 8.08 15.31
  Q 7.66 15.72 7.06 15.91
  A 0.91 0.90 -29.6 0 1 6.14 15.66
  Q 5.52 14.98 4.43 13.82
  Q 3.92 13.29 3.19 13.53
  Q 2.70 13.70 2.35 13.33
  L 0.00 10.87
  Z
  M 2.01 3.39
  A 0.30 0.30 0.0 0 0 1.49 3.60
  L 1.50 10.57
  A 0.30 0.30 0.0 0 0 1.60 10.80
  L 2.74 11.80
  A 0.30 0.30 0.0 0 0 3.15 11.79
  L 6.47 8.41
  A 0.30 0.30 0.0 0 0 6.48 7.99
  L 2.01 3.39
  Z
  M 8.83 12.22
  L 7.29 10.33
  A 0.27 0.27 0.0 0 0 6.91 10.29
  L 5.73 11.25
  A 1.35 1.17 50.9 0 0 5.67 13.03
  L 5.85 13.25
  A 1.35 1.17 50.9 0 0 7.61 13.56
  L 8.79 12.60
  A 0.27 0.27 0.0 0 0 8.83 12.22
  Z"
/>
<path d="
  M 37.77 17.66
  C 38.51 12.20 38.75 8.32 33.52 5.45
  C 31.29 4.22 29.22 4.64 26.60 5.55
  C 19.97 7.86 16.26 1.76 9.84 7.21
  A 0.63 0.63 0.0 0 1 8.99 7.18
  L 8.78 6.97
  A 0.40 0.40 0.0 0 1 8.77 6.41
  Q 12.07 3.01 16.00 3.12
  C 19.22 3.22 21.85 5.51 25.91 4.04
  Q 32.00 1.83 36.49 5.54
  C 39.59 8.08 40.17 13.10 39.31 17.66
  C 38.51 21.89 35.88 25.29 35.42 30.03
  Q 35.38 30.42 34.99 30.50
  L 34.27 30.63
  A 0.32 0.32 0.0 0 1 33.90 30.25
  Q 34.18 28.72 34.40 27.14
  C 34.87 23.76 37.29 21.17 37.77 17.66
  Z"
/>
<path d="
  M 17.66 38.25
  Q 19.07 29.29 19.67 26.49
  C 20.52 22.51 25.93 22.92 26.63 27.23
  Q 27.29 31.34 27.80 35.31
  Q 27.86 35.81 27.36 35.91
  L 27.04 35.97
  Q 26.50 36.07 26.41 35.53
  L 24.91 26.50
  A 1.65 1.62 8.3 0 0 24.00 25.30
  C 22.45 24.57 21.19 25.77 20.96 27.27
  Q 19.92 33.93 18.76 40.56
  C 18.23 43.58 14.48 45.02 12.70 42.32
  Q 12.14 41.47 11.85 39.53
  Q 10.90 33.28 10.17 27.00
  Q 9.97 25.21 6.78 19.57
  A 0.84 0.84 0.0 0 1 6.76 18.78
  L 7.17 17.93
  A 0.34 0.34 0.0 0 1 7.78 17.95
  C 9.36 21.67 11.33 24.69 11.83 28.49
  Q 12.60 34.40 13.45 40.66
  A 2.03 2.01 -84.3 0 0 14.77 42.29
  Q 15.57 42.58 16.30 42.03
  C 17.20 41.35 17.50 39.31 17.66 38.25
  Z"
/>
<path d="
  M 46.00 23.62
  L 46.00 28.55
  L 37.30 37.33
  Q 36.96 37.67 36.57 37.38
  L 36.01 36.96
  Q 35.63 36.68 35.30 37.02
  L 33.24 39.10
  Q 32.87 39.48 33.06 39.97
  Q 35.20 45.55 27.92 47.00
  L 26.59 47.00
  Q 22.43 46.12 21.44 42.49
  A 1.24 1.24 0.0 0 1 21.56 41.56
  Q 24.75 35.88 31.17 38.42
  Q 31.68 38.62 32.07 38.24
  L 34.02 36.32
  Q 34.42 35.94 34.22 35.42
  Q 33.71 34.09 35.15 32.65
  Q 39.92 27.92 44.86 22.94
  A 0.51 0.51 0.0 0 1 45.71 23.18
  Q 45.75 23.37 46.00 23.62
  Z
  M 35.65 34.78
  L 36.53 35.63
  A 0.27 0.27 0.0 0 0 36.92 35.62
  L 44.48 27.70
  A 1.16 0.71 -46.3 0 0 44.77 26.37
  L 44.52 26.14
  A 1.16 0.71 -46.3 0 0 43.21 26.49
  L 35.64 34.40
  A 0.27 0.27 0.0 0 0 35.65 34.78
  Z
  M 32.1199 42.3312
  A 4.47 3.03 0.4 0 0 27.6712 39.2701
  A 4.47 3.03 0.4 0 0 23.1801 42.2688
  A 4.47 3.03 0.4 0 0 27.6288 45.3299
  A 4.47 3.03 0.4 0 0 32.1199 42.3312
  Z"
/>
</g>
</svg>
