<?xml version="1.0" encoding="UTF-8" standalone="no"?>
<!DOCTYPE svg PUBLIC "-//W3C//DTD SVG 1.1//EN" "http://www.w3.org/Graphics/SVG/1.1/DTD/svg11.dtd">
<svg xmlns="http://www.w3.org/2000/svg" version="1.1" viewBox="0.00 0.00 47.00 43.00">
<g fill="#f9f5f4">
<path d="
  M 42.81 0.00
  L 43.41 0.00
  L 47.00 3.57
  L 47.00 4.18
  L 43.50 7.52
  Q 43.02 7.98 42.54 7.52
  L 39.37 4.43
  Q 38.92 3.99 39.35 3.55
  L 42.81 0.00
  Z
  M 43.7727 2.4714
  A 1.14 1.14 0.0 0 0 42.1605 2.4685
  L 41.5513 3.0756
  A 1.14 1.14 0.0 0 0 41.5485 4.6878
  L 42.1273 5.2686
  A 1.14 1.14 0.0 0 0 43.7395 5.2715
  L 44.3487 4.6644
  A 1.14 1.14 0.0 0 0 44.3515 3.0522
  L 43.7727 2.4714
  Z"
/>
<path d="
  M 31.82 43.00
  L 30.53 43.00
  C 29.69 42.43 27.76 42.34 27.29 41.14
  C 26.69 39.62 26.08 38.61 25.08 37.34
  C 22.05 33.48 19.53 39.72 18.38 41.56
  Q 18.11 41.99 17.63 42.17
  L 15.35 43.00
  L 14.55 43.00
  C 11.05 42.04 10.93 39.94 9.36 37.13
  Q 9.11 36.70 8.61 36.71
  Q 6.56 36.77 4.97 35.54
  Q 4.57 35.23 4.20 35.58
  L 1.40 38.25
  A 0.80 0.80 0.0 0 1 0.21 38.16
  L 0.00 37.89
  Q 0.00 37.81 0.00 37.74
  L 2.89 34.82
  Q 3.27 34.45 3.02 33.97
  Q 0.53 29.24 4.34 25.64
  Q 4.73 25.27 4.67 24.73
  Q 3.98 19.22 4.51 17.00
  C 5.71 11.91 5.49 3.10 13.48 3.93
  C 16.48 4.24 19.15 6.94 21.64 8.75
  A 2.49 2.49 0.0 0 0 24.62 8.72
  C 28.31 5.91 32.25 1.75 37.24 4.98
  Q 39.05 6.15 39.89 9.00
  C 41.27 13.70 42.54 20.50 41.31 25.32
  Q 40.84 27.14 40.25 28.92
  Q 37.31 37.78 35.67 40.65
  Q 34.85 42.08 31.82 43.00
  Z
  M 25.32 35.37
  C 27.26 36.44 27.34 39.25 29.13 40.63
  C 31.81 42.68 34.06 40.71 35.17 38.05
  C 37.58 32.28 40.43 27.15 40.34 20.35
  C 40.29 17.00 39.33 13.51 38.55 10.09
  C 37.89 7.17 36.75 5.38 33.64 5.34
  C 30.69 5.31 27.62 8.28 25.26 10.10
  A 3.64 3.63 -45.9 0 1 20.91 10.17
  C 18.60 8.50 15.88 5.83 13.27 5.42
  C 9.80 4.88 8.23 6.93 7.52 10.15
  C 6.26 15.77 5.59 18.96 6.19 24.06
  Q 6.25 24.58 6.77 24.51
  C 13.86 23.54 17.63 32.09 11.43 35.78
  Q 11.04 36.01 11.12 36.45
  C 11.51 38.76 13.30 42.19 15.97 41.37
  C 18.12 40.70 18.40 37.88 19.72 36.34
  Q 22.11 33.58 25.32 35.37
  Z
  M 6.41 26.29
  L 10.01 34.87
  A 0.02 0.02 0.0 0 0 10.04 34.88
  L 10.08 34.86
  A 4.63 4.47 67.2 0 0 12.41 28.86
  L 12.38 28.78
  A 4.63 4.47 67.2 0 0 6.46 26.25
  L 6.42 26.27
  A 0.02 0.02 0.0 0 0 6.41 26.29
  Z
  M 4.64 33.49
  A 0.36 0.36 0.0 0 0 4.77 33.62
  L 7.70 35.37
  A 0.36 0.36 0.0 0 0 8.22 34.92
  L 5.23 27.40
  A 0.36 0.36 0.0 0 0 4.55 27.41
  L 3.30 30.82
  A 0.36 0.36 0.0 0 0 3.32 31.12
  L 4.64 33.49
  Z"
/>
<circle cx="28.65" cy="15.65" r="1.47"/>
<circle cx="17.47" cy="15.71" r="1.45"/>
<ellipse cx="0.00" cy="0.00" transform="translate(11.13,20.26) rotate(-43.4)" rx="1.93" ry="0.77"/>
<ellipse cx="0.00" cy="0.00" transform="translate(15.00,20.30) rotate(-44.7)" rx="1.96" ry="0.70"/>
<ellipse cx="0.00" cy="0.00" transform="translate(36.65,20.33) rotate(133.9)" rx="1.91" ry="0.83"/>
<ellipse cx="0.00" cy="0.00" transform="translate(32.62,20.38) rotate(134.6)" rx="1.86" ry="0.80"/>
<path d="
  M 29.10 23.26
  C 25.39 25.87 20.97 26.01 17.21 23.42
  A 0.79 0.78 -75.1 0 1 16.88 22.84
  L 16.86 22.46
  A 0.53 0.53 0.0 0 1 17.68 21.97
  Q 23.25 25.58 28.65 21.82
  A 0.43 0.43 0.0 0 1 29.30 22.02
  L 29.40 22.29
  A 0.83 0.82 -28.0 0 1 29.10 23.26
  Z"
/>
</g>
</svg>
