<?xml version="1.0" encoding="UTF-8" standalone="no"?>
<!DOCTYPE svg PUBLIC "-//W3C//DTD SVG 1.1//EN" "http://www.w3.org/Graphics/SVG/1.1/DTD/svg11.dtd">
<svg xmlns="http://www.w3.org/2000/svg" version="1.1" viewBox="0.00 0.00 38.00 32.00">
<g fill="#f5f6f5">
<path d="
  M 15.42 0.00
  L 22.73 0.00
  L 32.21 1.17
  Q 32.57 1.22 32.51 1.57
  L 32.45 1.95
  Q 32.39 2.31 32.02 2.25
  C 22.79 0.71 11.33 0.29 2.39 3.31
  A 1.69 1.68 -17.6 0 0 1.31 5.38
  Q 1.79 6.99 1.58 8.63
  Q 1.35 10.53 2.88 9.38
  Q 6.21 6.88 9.47 9.34
  Q 9.85 9.62 10.22 9.33
  Q 14.47 6.00 18.71 9.37
  Q 19.06 9.65 19.41 9.37
  Q 23.49 6.12 27.72 9.14
  Q 28.17 9.46 28.64 9.16
  Q 32.71 6.56 35.61 10.07
  A 0.35 0.35 0.0 0 0 36.23 9.88
  L 36.76 4.92
  Q 36.83 4.31 36.40 3.86
  Q 35.92 3.35 34.19 2.90
  Q 33.96 2.84 34.00 2.60
  L 34.09 2.13
  Q 34.14 1.88 34.39 1.92
  Q 36.70 2.37 38.00 4.06
  L 38.00 5.45
  Q 37.16 6.91 37.57 8.99
  A 0.99 0.98 61.1 0 1 37.32 9.86
  Q 35.57 11.78 35.80 14.48
  A 2.13 2.12 78.4 0 1 34.37 16.66
  Q 31.37 17.68 28.58 16.30
  Q 28.09 16.06 27.84 16.55
  C 26.59 19.00 21.38 18.13 19.52 17.01
  Q 18.51 16.41 17.71 17.44
  Q 17.38 17.85 16.87 17.94
  C 14.55 18.33 11.77 18.52 10.11 16.52
  A 0.67 0.67 0.0 0 0 9.31 16.34
  Q 6.60 17.63 3.69 16.66
  A 1.79 1.78 5.3 0 1 2.48 15.21
  L 1.99 11.74
  Q 1.92 11.25 1.54 10.94
  L 1.00 10.51
  Q 0.58 10.17 0.59 9.64
  Q 0.64 7.37 0.00 5.35
  L 0.00 4.48
  C 1.29 1.10 11.62 0.21 15.42 0.00
  Z
  M 18.3867 11.7053
  A 2.96 2.96 0.0 0 0 15.3202 8.8557
  L 13.3015 8.9297
  A 2.96 2.96 0.0 0 0 10.4520 11.9962
  L 10.5333 14.2147
  A 2.96 2.96 0.0 0 0 13.5998 17.0643
  L 15.6185 16.9903
  A 2.96 2.96 0.0 0 0 18.4680 13.9238
  L 18.3867 11.7053
  Z
  M 27.4741 11.6144
  A 2.68 2.68 0.0 0 0 24.7432 8.9864
  L 22.2036 9.0351
  A 2.68 2.68 0.0 0 0 19.5756 11.7661
  L 19.6259 14.3856
  A 2.68 2.68 0.0 0 0 22.3568 17.0136
  L 24.8964 16.9649
  A 2.68 2.68 0.0 0 0 27.5244 14.2339
  L 27.4741 11.6144
  Z
  M 34.8290 11.4333
  A 2.37 2.37 0.0 0 0 32.3697 9.1560
  L 30.9908 9.2090
  A 2.37 2.37 0.0 0 0 28.7135 11.6682
  L 28.7910 13.6867
  A 2.37 2.37 0.0 0 0 31.2503 15.9640
  L 32.6292 15.9110
  A 2.37 2.37 0.0 0 0 34.9065 13.4518
  L 34.8290 11.4333
  Z
  M 9.2086 11.4280
  A 2.27 2.27 0.0 0 0 6.8005 9.3050
  L 5.1638 9.4080
  A 2.27 2.27 0.0 0 0 3.0408 11.8161
  L 3.1714 13.8920
  A 2.27 2.27 0.0 0 0 5.5795 16.0150
  L 7.2162 15.9120
  A 2.27 2.27 0.0 0 0 9.3392 13.5039
  L 9.2086 11.4280
  Z"
/>
<path d="
  M 3.49 6.34
  C 14.22 4.50 23.74 3.99 34.49 6.39
  A 0.35 0.34 -83.0 0 1 34.76 6.74
  L 34.74 7.18
  Q 34.73 7.57 34.35 7.48
  Q 18.95 4.00 3.58 7.56
  Q 3.21 7.64 3.16 7.26
  L 3.11 6.85
  Q 3.06 6.41 3.49 6.34
  Z"
/>
<path d="
  M 38.00 27.40
  L 38.00 27.79
  C 35.60 31.27 27.49 31.62 24.34 32.00
  L 12.84 32.00
  Q 20.69 30.71 28.24 30.22
  Q 32.08 29.97 36.20 28.45
  A 1.11 1.10 -22.0 0 0 36.83 26.98
  Q 35.99 25.02 36.60 23.03
  Q 36.73 22.60 36.33 22.42
  Q 36.03 22.29 35.70 22.32
  A 0.52 0.52 0.0 0 0 35.36 23.18
  L 35.64 23.50
  Q 35.91 23.81 35.68 24.15
  Q 34.76 25.51 33.33 26.21
  A 1.04 1.03 -44.1 0 1 32.38 26.20
  Q 31.75 25.87 31.04 25.76
  A 1.03 1.00 -63.5 0 0 30.15 26.07
  Q 28.03 28.29 25.64 26.70
  Q 25.22 26.42 24.89 26.81
  Q 22.40 29.76 19.38 27.41
  A 0.70 0.69 45.7 0 0 18.54 27.39
  Q 15.60 29.50 13.07 26.99
  Q 12.65 26.58 12.12 26.85
  Q 9.67 28.10 8.10 26.05
  Q 7.80 25.65 7.33 25.83
  Q 4.37 26.97 2.55 24.45
  Q 2.24 24.02 2.40 23.50
  L 2.57 23.00
  A 0.39 0.39 0.0 0 0 2.08 22.51
  Q 1.90 22.57 1.75 22.72
  Q 1.55 22.93 1.55 23.39
  Q 1.58 25.49 1.03 27.24
  A 1.13 1.12 -74.8 0 0 1.85 28.68
  L 11.22 30.78
  A 0.25 0.25 0.0 0 1 11.41 30.96
  L 11.48 31.23
  Q 11.60 31.66 11.15 31.62
  C 8.15 31.35 1.46 30.70 0.00 27.63
  L 0.00 27.28
  C 0.89 25.10 -0.35 21.82 1.85 20.85
  A 1.13 1.09 -84.3 0 0 2.32 20.45
  Q 4.38 17.21 7.59 19.34
  Q 7.96 19.59 8.38 19.45
  Q 10.79 18.64 12.95 19.86
  Q 13.38 20.10 13.84 19.92
  Q 16.37 18.92 18.78 20.13
  Q 19.20 20.35 19.62 20.12
  Q 21.81 18.90 24.20 19.90
  Q 24.58 20.06 24.94 19.85
  Q 27.04 18.59 29.48 19.41
  Q 29.98 19.58 30.45 19.33
  C 32.38 18.32 34.39 18.05 35.47 20.24
  Q 35.68 20.67 36.13 20.83
  Q 37.58 21.35 37.51 23.01
  Q 37.41 25.25 38.00 27.40
  Z
  M 7.2745 21.4771
  A 1.70 1.70 0.0 0 0 5.6721 19.6849
  L 5.2927 19.6637
  A 1.70 1.70 0.0 0 0 3.5004 21.2661
  L 3.3855 23.3229
  A 1.70 1.70 0.0 0 0 4.9879 25.1151
  L 5.3673 25.1363
  A 1.70 1.70 0.0 0 0 7.1596 23.5339
  L 7.2745 21.4771
  Z
  M 34.5380 21.2841
  A 1.67 1.67 0.0 0 0 32.8192 19.6644
  L 32.3594 19.6780
  A 1.67 1.67 0.0 0 0 30.7397 21.3968
  L 30.8020 23.4959
  A 1.67 1.67 0.0 0 0 32.5208 25.1156
  L 32.9806 25.1020
  A 1.67 1.67 0.0 0 0 34.6003 23.3832
  L 34.5380 21.2841
  Z
  M 12.5274 21.7353
  A 1.49 1.49 0.0 0 0 11.0558 20.2272
  L 9.9158 20.2133
  A 1.49 1.49 0.0 0 0 8.4077 21.6849
  L 8.3726 24.5647
  A 1.49 1.49 0.0 0 0 9.8442 26.0728
  L 10.9842 26.0867
  A 1.49 1.49 0.0 0 0 12.4923 24.6151
  L 12.5274 21.7353
  Z
  M 29.5968 21.6880
  A 1.48 1.48 0.0 0 0 28.0938 20.2314
  L 26.9539 20.2493
  A 1.48 1.48 0.0 0 0 25.4973 21.7524
  L 25.5432 24.6720
  A 1.48 1.48 0.0 0 0 27.0462 26.1286
  L 28.1861 26.1107
  A 1.48 1.48 0.0 0 0 29.6427 24.6076
  L 29.5968 21.6880
  Z
  M 18.3947 22.3519
  A 1.85 1.85 0.0 0 0 16.5382 20.5084
  L 15.5982 20.5117
  A 1.85 1.85 0.0 0 0 13.7547 22.3681
  L 13.7653 25.4081
  A 1.85 1.85 0.0 0 0 15.6218 27.2516
  L 16.5618 27.2483
  A 1.85 1.85 0.0 0 0 18.4053 25.3919
  L 18.3947 22.3519
  Z
  M 24.1927 22.3135
  A 1.82 1.82 0.0 0 0 22.3287 20.5385
  L 21.3090 20.5635
  A 1.82 1.82 0.0 0 0 19.5340 22.4274
  L 19.6073 25.4265
  A 1.82 1.82 0.0 0 0 21.4713 27.2015
  L 22.4910 27.1765
  A 1.82 1.82 0.0 0 0 24.2660 25.3126
  L 24.1927 22.3135
  Z"
/>
</g>
</svg>
