<?xml version="1.0" encoding="UTF-8" standalone="no"?>
<!DOCTYPE svg PUBLIC "-//W3C//DTD SVG 1.1//EN" "http://www.w3.org/Graphics/SVG/1.1/DTD/svg11.dtd">
<svg xmlns="http://www.w3.org/2000/svg" version="1.1" viewBox="0.00 0.00 60.00 44.00">
<path fill="#f5f6f6" d="
  M 53.55 0.00
  L 55.47 0.00
  L 58.81 0.89
  A 1.26 1.26 0.0 0 1 59.75 2.07
  L 59.77 2.46
  A 0.59 0.59 0.0 0 1 58.93 3.02
  C 50.73 -0.78 46.47 7.18 47.63 13.80
  Q 47.75 14.48 48.44 14.49
  L 53.49 14.51
  Q 54.25 14.51 54.25 13.76
  L 54.27 12.30
  Q 54.27 11.83 54.70 11.67
  Q 57.48 10.62 60.00 11.76
  L 60.00 12.86
  Q 58.45 13.32 57.14 13.05
  Q 56.14 12.85 56.12 13.87
  L 56.06 16.99
  Q 56.04 17.99 57.02 17.79
  Q 58.74 17.44 60.00 18.27
  L 60.00 18.84
  Q 57.74 20.30 54.88 19.30
  Q 54.44 19.14 54.32 18.68
  Q 54.12 17.85 54.19 17.02
  Q 54.25 16.33 53.55 16.33
  L 48.72 16.34
  Q 47.96 16.35 48.20 17.07
  C 49.47 20.89 51.59 23.98 52.64 28.49
  C 53.48 32.07 53.73 36.32 54.36 40.19
  A 1.31 1.31 0.0 0 0 55.76 41.29
  Q 57.57 41.15 58.24 39.48
  A 0.67 0.65 -72.8 0 1 58.98 39.08
  Q 59.50 39.18 60.00 39.91
  L 60.00 40.63
  Q 58.28 42.89 56.47 43.21
  A 3.04 3.04 0.0 0 1 53.22 41.55
  C 51.46 37.93 51.65 32.74 51.01 28.73
  Q 50.29 24.18 45.78 24.61
  Q 43.64 24.81 43.06 26.53
  Q 41.42 31.36 41.02 37.32
  Q 40.83 40.08 40.37 41.04
  C 39.19 43.51 36.19 44.19 34.15 42.19
  C 31.82 39.90 31.04 32.71 30.51 29.86
  Q 30.05 27.37 29.56 29.85
  C 28.89 33.23 28.22 43.24 22.84 43.32
  C 16.86 43.41 19.91 28.55 15.95 25.31
  C 14.00 23.71 10.12 24.53 9.49 27.39
  Q 8.53 31.75 7.66 39.50
  C 7.12 44.28 1.63 44.70 0.00 40.44
  Q 0.00 40.35 0.00 40.26
  Q 0.74 39.18 1.80 40.22
  C 3.17 41.57 5.79 42.00 5.92 39.51
  Q 6.48 28.66 10.68 19.97
  C 11.12 19.06 11.25 17.91 11.69 17.03
  Q 12.04 16.34 11.27 16.34
  L 6.52 16.32
  Q 5.87 16.32 5.83 16.98
  L 5.73 18.71
  Q 5.70 19.27 5.14 19.38
  Q 2.52 19.89 0.00 19.20
  L 0.00 18.30
  Q 1.96 17.41 2.97 17.71
  Q 3.91 17.98 3.91 17.00
  L 3.89 13.86
  Q 3.88 12.86 2.90 13.08
  Q 1.71 13.35 0.00 12.69
  L 0.00 11.91
  Q 2.31 10.72 5.17 11.43
  Q 5.69 11.56 5.71 12.09
  L 5.77 13.78
  Q 5.79 14.51 6.53 14.51
  L 11.51 14.49
  Q 12.31 14.48 12.41 13.69
  C 13.19 7.51 9.21 -0.37 1.83 2.89
  Q 0.84 3.33 0.00 2.63
  L 0.00 1.98
  C 5.58 -1.78 9.73 0.72 12.94 5.69
  Q 13.21 6.11 13.57 5.77
  C 16.92 2.65 17.62 -0.72 23.37 0.41
  C 26.69 1.05 29.41 3.90 32.82 1.81
  C 38.22 -1.50 43.28 0.46 46.19 5.78
  Q 46.51 6.36 46.81 5.77
  Q 49.20 1.19 53.55 0.00
  Z
  M 34.59 11.73
  L 34.93 14.01
  Q 35.01 14.50 35.50 14.50
  L 44.98 14.51
  Q 45.42 14.51 45.48 14.07
  C 46.20 9.33 43.67 1.46 37.69 2.06
  C 34.57 2.38 30.45 5.53 26.39 6.15
  Q 25.73 6.26 25.34 5.64
  Q 25.07 5.21 25.45 4.89
  L 26.40 4.08
  Q 26.76 3.77 26.36 3.50
  Q 23.45 1.57 20.45 2.24
  C 15.50 3.34 13.86 9.50 14.57 13.95
  Q 14.66 14.50 15.22 14.50
  L 24.49 14.50
  Q 24.99 14.50 25.06 14.01
  L 25.40 11.92
  Q 25.49 11.35 26.06 11.34
  L 33.98 11.21
  A 0.61 0.60 85.1 0 1 34.59 11.73
  Z
  M 32.9965 13.3748
  A 0.32 0.32 0.0 0 0 32.6760 13.0553
  L 27.3160 13.0647
  A 0.32 0.32 0.0 0 0 26.9965 13.3852
  L 27.0035 17.3652
  A 0.32 0.32 0.0 0 0 27.3240 17.6847
  L 32.6840 17.6753
  A 0.32 0.32 0.0 0 0 33.0035 17.3548
  L 32.9965 13.3748
  Z
  M 34.24 19.57
  L 25.74 19.54
  A 0.64 0.64 0.0 0 1 25.10 18.86
  L 25.24 16.67
  Q 25.26 16.33 24.92 16.33
  L 15.71 16.33
  A 0.48 0.48 0.0 0 0 15.23 16.81
  Q 15.22 17.52 15.54 18.24
  C 17.21 22.13 19.10 25.97 19.83 30.10
  Q 20.64 34.68 21.00 39.47
  A 2.06 2.05 -10.7 0 0 23.66 41.28
  Q 25.36 40.76 25.81 38.47
  Q 26.83 33.43 28.13 28.18
  A 1.61 1.61 0.0 0 1 28.96 27.12
  Q 31.37 25.87 31.96 28.66
  Q 33.02 33.64 34.28 38.59
  Q 34.89 40.97 36.81 41.34
  A 1.73 1.72 -80.5 0 0 38.85 39.88
  C 39.96 31.87 40.40 25.99 44.75 18.00
  Q 45.10 17.35 45.03 16.74
  Q 44.97 16.32 44.55 16.32
  L 35.26 16.32
  Q 34.83 16.32 34.83 16.74
  L 34.81 19.01
  Q 34.81 19.57 34.24 19.57
  Z
  M 11.84 22.59
  L 15.00 22.85
  Q 15.35 22.88 15.23 22.55
  L 13.93 19.04
  A 0.45 0.44 47.6 0 0 13.11 19.00
  L 11.59 22.16
  A 0.31 0.30 15.0 0 0 11.84 22.59
  Z
  M 44.81 22.26
  A 0.32 0.32 0.0 0 0 45.12 22.70
  L 48.13 22.59
  A 0.32 0.32 0.0 0 0 48.41 22.13
  L 46.78 18.71
  A 0.32 0.32 0.0 0 0 46.19 18.73
  L 44.81 22.26
  Z"
/>
</svg>
