<?xml version="1.0" encoding="UTF-8" standalone="no"?>
<!DOCTYPE svg PUBLIC "-//W3C//DTD SVG 1.1//EN" "http://www.w3.org/Graphics/SVG/1.1/DTD/svg11.dtd">
<svg xmlns="http://www.w3.org/2000/svg" version="1.1" viewBox="0.00 0.00 36.00 38.00">
<g fill="#f5f6f6">
<path d="
  M 9.08 0.00
  L 11.47 0.00
  Q 14.56 0.40 17.18 2.19
  A 1.09 1.07 53.2 0 0 18.10 2.33
  L 25.82 0.00
  L 26.26 0.00
  Q 34.62 1.66 36.00 10.14
  L 36.00 12.47
  Q 34.98 16.07 32.67 18.98
  C 28.68 23.98 33.10 35.66 26.34 38.00
  L 25.49 38.00
  C 20.53 37.65 20.92 33.08 20.90 29.41
  A 2.73 2.72 89.3 0 0 18.12 26.69
  C 14.50 26.77 15.08 30.51 15.01 32.82
  C 14.83 39.05 6.89 39.84 6.03 33.00
  C 5.39 27.89 5.71 22.45 2.69 18.03
  Q 0.64 15.02 0.00 11.37
  L 0.00 9.55
  Q 1.75 2.02 9.08 0.00
  Z
  M 14.66 27.07
  C 16.21 25.03 19.81 24.91 21.42 27.07
  C 23.31 29.61 21.28 32.93 23.02 35.11
  C 24.94 37.51 28.38 36.40 28.66 33.24
  Q 29.09 28.39 29.69 23.56
  C 30.12 20.04 31.16 18.90 33.02 16.02
  C 37.29 9.43 31.98 0.21 23.79 1.58
  C 21.06 2.03 19.45 4.61 16.06 3.14
  Q 13.36 1.97 13.31 1.95
  Q 5.66 -0.09 2.21 7.01
  C -1.13 13.90 5.62 16.64 6.23 22.49
  Q 6.79 27.76 7.38 33.00
  C 7.91 37.75 13.63 37.17 13.65 33.74
  C 13.67 31.57 13.34 28.80 14.66 27.07
  Z"
/>
<path d="
  M 5.16 10.53
  A 0.62 0.61 -80.4 0 1 4.52 10.99
  L 4.19 10.97
  Q 3.73 10.94 3.82 10.50
  Q 4.95 5.15 10.28 3.76
  A 0.66 0.66 0.0 0 1 11.09 4.24
  L 11.16 4.55
  A 0.36 0.36 0.0 0 1 10.89 4.99
  Q 6.32 6.01 5.16 10.53
  Z"
/>
</g>
</svg>
