<?xml version="1.0" encoding="UTF-8" standalone="no"?>
<!DOCTYPE svg PUBLIC "-//W3C//DTD SVG 1.1//EN" "http://www.w3.org/Graphics/SVG/1.1/DTD/svg11.dtd">
<svg xmlns="http://www.w3.org/2000/svg" version="1.1" viewBox="0.00 0.00 40.00 40.00">
<g fill="#fd312f">
<path d="
  M 9.59 0.00
  L 30.48 0.00
  Q 38.22 1.73 40.00 9.67
  L 40.00 30.48
  Q 38.17 38.38 30.08 40.00
  L 9.97 40.00
  Q 1.51 38.53 0.00 29.86
  L 0.00 9.57
  Q 1.88 1.52 9.59 0.00
  Z
  M 37.6543 10.9792
  A 8.67 8.67 0.0 0 0 28.9691 2.3243
  L 10.9892 2.3557
  A 8.67 8.67 0.0 0 0 2.3343 11.0408
  L 2.3657 29.0408
  A 8.67 8.67 0.0 0 0 11.0509 37.6957
  L 29.0308 37.6643
  A 8.67 8.67 0.0 0 0 37.6857 28.9792
  L 37.6543 10.9792
  Z"
/>
<path d="
  M 34.35 8.40
  A 3.13 3.13 0.0 0 1 31.22 11.53
  A 3.13 3.13 0.0 0 1 28.09 8.40
  A 3.13 3.13 0.0 0 1 31.22 5.27
  A 3.13 3.13 0.0 0 1 34.35 8.40
  Z
  M 30.61 9.17
  Q 31.28 9.17 31.73 8.75
  Q 32.35 8.18 31.63 7.74
  Q 31.51 7.67 31.37 7.63
  A 0.71 0.70 11.8 0 0 30.49 8.20
  L 30.38 8.90
  Q 30.33 9.17 30.61 9.17
  Z"
/>
<path d="
  M 30.77 19.96
  A 10.79 10.79 0.0 0 1 19.98 30.75
  A 10.79 10.79 0.0 0 1 9.19 19.96
  A 10.79 10.79 0.0 0 1 19.98 9.17
  A 10.79 10.79 0.0 0 1 30.77 19.96
  Z
  M 28.49 20.00
  A 8.48 8.48 0.0 0 0 20.01 11.52
  A 8.48 8.48 0.0 0 0 11.53 20.00
  A 8.48 8.48 0.0 0 0 20.01 28.48
  A 8.48 8.48 0.0 0 0 28.49 20.00
  Z"
/>
</g>
</svg>
