<?xml version="1.0" encoding="UTF-8" standalone="no"?>
<!DOCTYPE svg PUBLIC "-//W3C//DTD SVG 1.1//EN" "http://www.w3.org/Graphics/SVG/1.1/DTD/svg11.dtd">
<svg xmlns="http://www.w3.org/2000/svg" version="1.1" viewBox="0.00 0.00 41.00 40.00">
<g fill="#f7f6f7">
<path d="
  M 9.64 0.00
  L 30.40 0.00
  C 39.17 2.02 40.13 7.38 40.07 15.87
  C 40.01 25.10 42.79 37.52 30.31 40.00
  L 10.06 40.00
  Q 0.22 37.88 0.24 28.54
  Q 0.25 21.84 0.26 15.23
  C 0.27 7.31 1.44 1.77 9.64 0.00
  Z
  M 37.77 10.94
  A 8.63 8.63 0.0 0 0 29.14 2.31
  L 11.18 2.31
  A 8.63 8.63 0.0 0 0 2.55 10.94
  L 2.55 29.06
  A 8.63 8.63 0.0 0 0 11.18 37.69
  L 29.14 37.69
  A 8.63 8.63 0.0 0 0 37.77 29.06
  L 37.77 10.94
  Z"
/>
<path d="
  M 34.48 8.43
  A 3.12 3.12 0.0 0 1 31.36 11.55
  A 3.12 3.12 0.0 0 1 28.24 8.43
  A 3.12 3.12 0.0 0 1 31.36 5.31
  A 3.12 3.12 0.0 0 1 34.48 8.43
  Z
  M 30.49 8.95
  Q 30.44 9.21 30.70 9.16
  L 31.86 8.95
  Q 32.35 8.86 32.21 8.39
  L 32.09 8.02
  A 0.55 0.55 0.0 0 0 31.24 7.74
  Q 30.62 8.18 30.49 8.95
  Z"
/>
<path d="
  M 30.94 19.94
  A 10.77 10.77 0.0 0 1 20.17 30.71
  A 10.77 10.77 0.0 0 1 9.40 19.94
  A 10.77 10.77 0.0 0 1 20.17 9.17
  A 10.77 10.77 0.0 0 1 30.94 19.94
  Z
  M 28.68 19.98
  A 8.47 8.47 0.0 0 0 20.21 11.51
  A 8.47 8.47 0.0 0 0 11.74 19.98
  A 8.47 8.47 0.0 0 0 20.21 28.45
  A 8.47 8.47 0.0 0 0 28.68 19.98
  Z"
/>
</g>
</svg>
