<?xml version="1.0" encoding="UTF-8" standalone="no"?>
<!DOCTYPE svg PUBLIC "-//W3C//DTD SVG 1.1//EN" "http://www.w3.org/Graphics/SVG/1.1/DTD/svg11.dtd">
<svg xmlns="http://www.w3.org/2000/svg" version="1.1" viewBox="0.00 0.00 32.00 44.00">
<path fill="#f4f5f5" d="
  M 8.94 0.00
  L 11.51 0.00
  Q 16.04 2.52 20.63 0.00
  L 22.52 0.00
  Q 30.21 0.99 32.00 8.92
  L 32.00 12.43
  C 31.29 16.27 29.09 20.38 24.82 20.66
  A 0.63 0.62 89.5 0 0 24.23 21.27
  L 24.06 26.34
  A 0.47 0.46 87.0 0 1 23.67 26.78
  L 22.81 26.93
  Q 22.35 27.00 22.09 27.39
  Q 20.65 29.51 22.50 30.75
  Q 23.03 31.09 22.56 31.52
  C 21.15 32.79 19.35 34.75 21.39 36.43
  Q 21.82 36.78 21.44 37.19
  L 20.03 38.70
  Q 19.74 39.02 19.65 39.45
  L 18.66 44.00
  L 13.42 44.00
  L 12.20 38.97
  A 1.44 1.41 10.6 0 0 11.61 38.13
  L 10.44 37.32
  Q 9.77 36.87 10.44 36.42
  L 11.06 36.01
  Q 11.55 35.69 11.39 35.12
  Q 11.20 34.43 11.25 33.70
  Q 11.30 33.06 10.81 32.66
  Q 10.58 32.45 10.28 32.40
  Q 9.74 32.31 9.64 31.77
  Q 9.43 30.71 10.15 29.94
  Q 10.46 29.60 10.46 29.14
  Q 10.50 26.98 8.50 26.83
  Q 7.97 26.79 7.95 26.26
  L 7.77 20.98
  Q 7.75 20.39 7.17 20.50
  C 3.07 21.31 0.34 15.04 0.00 11.88
  L 0.00 8.98
  Q 1.42 1.73 8.94 0.00
  Z
  M 29.62 12.62
  Q 30.77 4.15 23.32 2.27
  C 19.92 1.42 17.33 4.48 13.62 3.15
  C 9.79 1.78 7.80 1.78 4.85 4.27
  C 0.67 7.80 1.39 18.69 7.92 18.70
  Q 16.65 18.70 25.40 18.69
  Q 25.93 18.69 26.36 18.39
  Q 29.11 16.41 29.62 12.62
  Z
  M 22.1830 21.0208
  A 0.45 0.45 0.0 0 0 21.7338 20.5700
  L 10.2738 20.5500
  A 0.45 0.45 0.0 0 0 9.8230 20.9992
  L 9.8170 24.4592
  A 0.45 0.45 0.0 0 0 10.2662 24.9100
  L 21.7262 24.9300
  A 0.45 0.45 0.0 0 0 22.1770 24.4808
  L 22.1830 21.0208
  Z
  M 12.46 27.00
  A 0.33 0.33 0.0 0 0 12.14 27.39
  L 12.79 31.04
  A 0.33 0.33 0.0 0 0 13.11 31.31
  L 18.89 31.36
  A 0.33 0.33 0.0 0 0 19.21 31.08
  L 19.81 27.38
  A 0.33 0.33 0.0 0 0 19.48 27.00
  L 12.46 27.00
  Z
  M 13.96 33.37
  A 0.58 0.58 0.0 0 0 13.39 34.06
  L 13.87 36.40
  A 0.58 0.58 0.0 0 0 14.43 36.86
  L 17.61 36.89
  A 0.58 0.58 0.0 0 0 18.18 36.45
  L 18.75 34.11
  A 0.58 0.58 0.0 0 0 18.20 33.39
  L 13.96 33.37
  Z
  M 17.37 39.01
  L 14.59 38.99
  A 0.29 0.29 0.0 0 0 14.29 39.27
  L 14.29 39.45
  A 2.53 1.39 -89.4 0 0 15.65 42.00
  L 16.23 42.00
  A 2.53 1.39 -89.4 0 0 17.65 39.49
  L 17.65 39.31
  A 0.29 0.29 0.0 0 0 17.37 39.01
  Z"
/>
</svg>
