<?xml version="1.0" encoding="UTF-8" standalone="no"?>
<!DOCTYPE svg PUBLIC "-//W3C//DTD SVG 1.1//EN" "http://www.w3.org/Graphics/SVG/1.1/DTD/svg11.dtd">
<svg xmlns="http://www.w3.org/2000/svg" version="1.1" viewBox="0.00 0.00 52.00 52.00">
<g fill="#f5f6f7">
<path d="
  M 20.27 0.00
  L 20.74 0.00
  L 20.97 0.67
  Q 21.14 1.15 20.76 1.50
  L 18.16 3.90
  Q 17.86 4.18 17.51 3.96
  L 17.25 3.80
  Q 16.79 3.52 17.17 3.13
  L 20.27 0.00
  Z"
/>
<path d="
  M 27.56 0.00
  L 28.41 0.00
  L 27.47 2.01
  A 0.71 0.70 33.6 0 0 27.64 2.83
  C 31.60 6.39 35.46 9.57 35.17 15.51
  Q 35.00 19.20 35.17 21.46
  Q 35.40 24.40 36.99 21.91
  C 42.75 12.84 39.13 8.96 32.70 2.71
  A 1.27 1.27 0.0 0 1 32.35 2.11
  Q 32.15 1.36 31.47 1.42
  Q 30.95 1.46 31.02 0.95
  Q 31.08 0.46 31.39 0.00
  L 32.00 0.00
  C 35.99 4.07 41.52 7.84 41.28 14.24
  C 41.20 16.50 38.82 23.97 35.80 24.65
  Q 34.21 25.01 33.96 23.42
  A 0.48 0.48 0.0 0 0 33.01 23.42
  C 32.67 25.78 32.65 29.85 30.51 31.40
  A 1.87 1.87 0.0 0 1 27.66 30.53
  L 26.19 26.51
  A 0.33 0.33 0.0 0 0 25.56 26.57
  Q 25.21 28.74 24.10 30.82
  A 1.85 1.85 0.0 0 1 20.81 30.77
  Q 18.99 27.11 19.04 22.90
  Q 19.04 22.51 18.67 22.66
  Q 18.55 22.71 18.42 22.76
  Q 18.29 22.82 18.27 22.95
  Q 17.93 25.05 15.68 24.45
  A 1.36 1.34 -12.3 0 1 14.97 24.00
  C 10.21 18.36 8.51 10.28 14.99 5.18
  Q 15.40 4.86 15.81 5.23
  Q 16.15 5.52 15.90 5.89
  Q 14.85 7.44 13.51 8.72
  C 10.09 12.00 13.43 20.14 15.90 22.81
  Q 16.73 23.72 16.78 22.49
  Q 16.94 17.75 16.96 12.74
  C 16.98 8.78 24.68 2.54 27.56 0.00
  Z
  M 30.59 7.59
  Q 30.41 7.19 30.19 7.05
  Q 28.07 5.60 26.45 3.90
  A 0.78 0.78 0.0 0 0 25.34 3.88
  C 23.49 5.65 19.23 9.14 18.98 11.57
  Q 18.91 12.23 19.50 11.94
  L 20.24 11.57
  A 1.60 1.59 36.9 0 1 21.25 11.43
  L 26.18 12.37
  A 1.68 1.67 -52.1 0 0 27.20 12.24
  Q 30.01 10.88 32.77 12.15
  Q 33.64 12.55 33.33 11.64
  Q 32.66 9.75 31.18 8.39
  Q 30.80 8.05 30.59 7.59
  Z
  M 26.89 24.51
  Q 28.12 26.66 28.67 29.13
  Q 29.30 31.95 30.36 29.26
  Q 31.51 26.35 31.41 23.17
  A 1.69 1.63 -28.7 0 1 31.72 22.18
  C 35.39 17.03 33.99 10.54 26.06 14.01
  Q 25.60 14.21 25.17 13.96
  C 23.31 12.86 20.78 12.35 19.15 14.18
  Q 17.35 16.20 18.69 19.05
  Q 20.68 23.26 20.88 26.47
  C 20.98 28.04 21.52 28.98 22.27 30.21
  A 0.41 0.41 0.0 0 0 22.99 30.17
  C 23.75 28.49 24.25 24.70 26.12 24.19
  Q 26.63 24.05 26.89 24.51
  Z"
/>
<path d="
  M 52.00 36.62
  L 52.00 37.95
  L 50.58 42.60
  Q 50.45 43.02 50.81 43.28
  Q 51.58 43.84 52.00 44.62
  L 52.00 52.00
  L 50.69 52.00
  L 50.55 45.34
  A 0.98 0.97 -13.7 0 0 49.14 44.49
  Q 44.40 46.86 39.22 45.52
  C 37.90 45.18 35.02 43.40 33.23 44.10
  C 26.74 46.64 24.66 46.32 18.33 44.02
  Q 17.85 43.84 17.35 43.98
  C 11.93 45.50 8.85 47.27 3.28 44.61
  Q 1.50 43.76 1.50 45.73
  L 1.50 50.74
  A 0.99 0.97 -24.6 0 1 1.25 51.39
  Q 0.59 52.16 0.00 51.41
  L 0.00 44.51
  Q 2.01 43.01 0.00 37.32
  Q 0.10 37.06 0.00 36.58
  C 1.45 31.71 4.67 31.78 8.76 33.24
  A 1.28 1.28 0.0 0 0 9.72 33.19
  C 16.57 29.96 20.32 36.14 17.23 41.87
  Q 16.96 42.37 17.52 42.47
  L 19.66 42.83
  A 1.25 1.25 0.0 0 1 20.09 42.99
  C 25.55 46.11 28.97 43.83 34.36 42.35
  Q 34.85 42.22 34.66 41.75
  C 33.32 38.40 32.96 33.71 37.06 32.53
  Q 38.06 32.24 40.92 32.81
  C 44.10 33.44 46.12 31.77 49.10 32.83
  C 50.82 33.44 51.34 35.07 52.00 36.62
  Z
  M 9.30 34.77
  C 6.60 34.16 2.75 32.28 1.63 36.40
  Q 0.95 38.89 3.25 42.77
  A 1.55 1.54 87.1 0 0 3.91 43.37
  C 9.44 45.94 17.58 45.00 16.64 36.77
  C 16.24 33.28 12.57 33.20 10.18 34.63
  Q 9.76 34.88 9.30 34.77
  Z
  M 38.63 33.83
  C 34.95 33.49 34.75 38.40 35.74 40.72
  C 37.88 45.74 46.89 45.93 49.53 41.44
  C 51.07 38.83 50.73 32.46 46.24 33.89
  C 44.29 34.52 43.73 35.10 41.61 34.43
  Q 40.15 33.97 38.63 33.83
  Z"
/>
</g>
</svg>
