<?xml version="1.0" encoding="UTF-8" standalone="no"?>
<!DOCTYPE svg PUBLIC "-//W3C//DTD SVG 1.1//EN" "http://www.w3.org/Graphics/SVG/1.1/DTD/svg11.dtd">
<svg xmlns="http://www.w3.org/2000/svg" version="1.1" viewBox="0.00 0.00 41.00 40.00">
<g fill="#f3f3f3">
<path d="
  M 7.62 0.00
  L 32.90 0.00
  Q 37.16 1.97 39.25 5.73
  Q 40.56 8.10 40.57 12.51
  Q 40.58 20.44 40.52 28.34
  Q 40.49 32.15 39.22 34.35
  Q 37.05 38.13 32.84 40.00
  L 7.54 40.00
  Q 1.97 37.83 0.00 32.08
  L 0.00 7.58
  Q 2.32 2.04 7.62 0.00
  Z
  M 37.24 11.02
  A 8.17 8.17 0.0 0 0 29.07 2.85
  L 11.11 2.85
  A 8.17 8.17 0.0 0 0 2.94 11.02
  L 2.94 28.96
  A 8.17 8.17 0.0 0 0 11.11 37.13
  L 29.07 37.13
  A 8.17 8.17 0.0 0 0 37.24 28.96
  L 37.24 11.02
  Z"
/>
<path d="
  M 16.21 17.76
  Q 16.59 15.86 15.82 14.19
  A 1.55 1.55 0.0 0 1 17.23 12.00
  L 21.74 12.00
  A 0.72 0.71 80.1 0 1 22.41 12.48
  Q 22.93 14.03 22.86 15.70
  Q 22.72 18.99 24.37 16.14
  L 26.28 12.86
  Q 26.47 12.52 26.83 12.38
  Q 29.43 11.34 31.79 12.64
  A 0.82 0.82 0.0 0 1 32.17 13.64
  Q 31.03 16.80 28.84 19.35
  A 1.21 1.21 0.0 0 0 28.97 21.05
  Q 31.28 23.04 32.82 25.67
  A 1.55 1.55 0.0 0 1 31.50 28.00
  C 27.71 28.04 26.58 27.44 23.98 24.87
  Q 22.25 23.16 23.02 25.46
  Q 23.59 27.16 21.67 27.77
  C 18.13 28.88 13.45 25.78 11.46 23.03
  Q 8.46 18.90 7.27 14.42
  A 1.92 1.92 0.0 0 1 9.12 12.01
  L 12.41 12.01
  A 0.62 0.61 76.7 0 1 12.96 12.36
  L 15.59 17.84
  Q 16.02 18.74 16.21 17.76
  Z
  M 21.01 23.26
  A 1.70 1.70 0.0 0 1 23.85 22.09
  L 27.64 25.53
  A 1.79 1.78 66.3 0 0 28.81 25.99
  L 30.18 26.00
  Q 31.00 26.01 30.43 25.42
  L 27.31 22.14
  A 2.73 2.73 0.0 0 1 27.04 18.70
  L 29.74 14.79
  Q 30.31 13.98 29.32 13.98
  L 28.56 13.98
  A 1.57 1.56 -79.4 0 0 27.12 14.97
  Q 25.94 17.92 23.66 20.11
  A 1.51 1.51 0.0 0 1 21.53 20.06
  C 20.47 18.94 21.01 15.89 20.94 14.39
  Q 20.92 14.00 20.53 14.00
  L 18.32 14.01
  Q 18.16 14.01 18.16 14.17
  L 18.28 20.68
  A 1.12 1.12 0.0 0 1 16.45 21.56
  Q 13.11 18.80 11.91 14.65
  Q 11.72 13.98 11.02 13.99
  L 9.69 14.00
  Q 9.09 14.01 9.28 14.58
  C 10.91 19.43 14.49 25.79 20.36 26.05
  Q 20.87 26.08 20.89 25.57
  L 21.01 23.26
  Z"
/>
</g>
</svg>
